# xmcd
#
# Track frame offsets:
#	150
#	13746
#	27882
#	45184
#	59849
#	74985
#	88923
#	102260
#	114372
#	131132
#	145181
#	159783
#
# Disc length: 2269 seconds
# Revision: 0
# Processed by: cddbd v1.5.2PL0 Copyright (c) Steve Scherf et al.
# Submitted via: dBpowerAMP V12.0
#
DISCID=a708db0c
DTITLE=Irene Kelley - Pennsylvania Coal
DYEAR=2013
DGENRE=Bluegrass
TTITLE0=You Don't Run Across My Mind
TTITLE1=Feels Like Home
TTITLE2=Pennsylvania Coal
TTITLE3=Breakin' Even
TTITLE4=My Flower
TTITLE5=Rattlesnake Rattler
TTITLE6=Sister's Heart
TTITLE7=Things We Never Did
TTITLE8=Angels Around Her
TTITLE9=Better With Time
TTITLE10=Garden Of Dreams
TTITLE11=You Are Mine
EXTD=
EXTT0=
EXTT1=
EXTT2=
EXTT3=
EXTT4=
EXTT5=
EXTT6=
EXTT7=
EXTT8=
EXTT9=
EXTT10=
EXTT11=
PLAYORDER=
